<svg xmlns="http://www.w3.org/2000/svg" height="48" viewBox="0 -960 960 960" width="48"><path d="M412.461-161.038v-104.66l-131.654-138v-176.055q0-17.072 9.462-30.564 9.462-13.491 26.923-16.952l26.077 27.73h-16.885q-6.153 0-10.769 5.385Q311-588.769 311-579.539v163.347l131.654 137.23v87.731h74.692v-86.833l51.692-53.667L79.077-820.923l21.154-21.654 741.038 741.038-20.384 21.654L590.808-309.96l-43.269 44.346v104.577H412.461Zm253.655-214.846L649-392.231v-187.308q0-9.23-7.692-16.923-7.692-7.692-16.923-7.692H437.462l-52.231-52.231v-142.577h30.192v164.616h129.154v-164.616h30.192v179.27l-14.653-14.654h64.269q22.012 0 38.41 16.398 16.398 16.397 16.398 38.409v187.885l-13.077 15.77ZM545.5-496.5Zm-102.808 37.923Z"/></svg>