<svg xmlns="http://www.w3.org/2000/svg" height="48" viewBox="0 -960 960 960" width="48"><path d="M480-121.154q-66.308 0-124.519-25.057-58.212-25.058-101.27-68.116-43.057-43.057-68.115-101.269-25.058-58.212-25.058-124.519h30.193q0 120.153 84.307 204.461Q359.846-151.346 480-151.346q120.154 0 204.462-84.058 84.307-84.058 84.307-205.096 0-120.154-82.961-204.212-82.962-84.057-203.116-84.057h-23.884l70.692 69.923-21.423 20.654-106.962-107.731 108.5-107.731 21.423 20.538-74.153 74.154H480q66.308 0 124.519 25.058 58.212 25.058 101.27 68.308 43.057 43.25 68.115 101.461 25.058 58.212 25.058 123.635 0 66.692-25.058 124.712-25.058 58.019-68.115 101.269-43.058 43.25-101.27 68.308Q546.308-121.154 480-121.154Z"/></svg>